<svg width="108" height="16" viewBox="0 0 108 16" fill="none" xmlns="http://www.w3.org/2000/svg">
    <g clip-path="url(#clip0_358_2664)">
        <path d="M21.75 0.25H2.25C1.14543 0.25 0.25 1.14543 0.25 2.25V13.75C0.25 14.8546 1.14543 15.75 2.25 15.75H21.75C22.8546 15.75 23.75 14.8546 23.75 13.75V2.25C23.75 1.14543 22.8546 0.25 21.75 0.25Z"
              fill="white" stroke="black" stroke-opacity="0.2" strokeWidth="0.5"/>
        <path d="M2.78773 5.91444C2.26459 5.62751 1.66754 5.39674 1 5.23659L1.028 5.11188H3.76498C4.13596 5.12489 4.43699 5.23651 4.53495 5.63071L5.12977 8.46659L5.31198 9.32073L6.97797 5.11188H8.77679L6.10288 11.2775H4.30397L2.78773 5.91444ZM10.1 11.2841H8.39883L9.46285 5.11188H11.1639L10.1 11.2841ZM16.2668 5.26277L16.0354 6.59559L15.8816 6.53004C15.5737 6.40525 15.1674 6.28054 14.6144 6.29371C13.9427 6.29371 13.6415 6.56277 13.6345 6.82546C13.6345 7.11441 13.9989 7.30484 14.5939 7.58725C15.574 8.02719 16.0286 8.56557 16.0218 9.26819C16.0081 10.5486 14.846 11.3761 13.0611 11.3761C12.2979 11.3694 11.5628 11.2181 11.1638 11.0476L11.4019 9.66205L11.6259 9.76066C12.1789 9.99071 12.5428 10.089 13.222 10.089C13.7118 10.089 14.2369 9.89838 14.2436 9.48488C14.2436 9.21565 14.0199 9.01851 13.3617 8.71646C12.7178 8.42087 11.8568 7.92848 11.8708 7.04198C11.8781 5.84042 13.0611 5 14.741 5C15.399 5 15.9312 5.13789 16.2668 5.26277ZM18.5278 9.09749H19.9417C19.8718 8.78889 19.5496 7.31147 19.5496 7.31147L19.4307 6.77964C19.3467 7.00943 19.1999 7.38373 19.2069 7.37056C19.2069 7.37056 18.6678 8.7429 18.5278 9.09749ZM20.6276 5.11188L22 11.284H20.4249C20.4249 11.284 20.2708 10.5748 20.2219 10.3581H18.0378C17.9746 10.5222 17.6808 11.284 17.6808 11.284H15.8958L18.4226 5.62399C18.5977 5.22342 18.906 5.11188 19.3118 5.11188H20.6276Z"
              fill="#171E6C"/>
    </g>
    <g clip-path="url(#clip1_358_2664)">
        <path d="M50 0H30C28.8954 0 28 0.89543 28 2V14C28 15.1046 28.8954 16 30 16H50C51.1046 16 52 15.1046 52 14V2C52 0.89543 51.1046 0 50 0Z"
              fill="#252525"/>
        <path d="M37 13C39.7614 13 42 10.7614 42 8C42 5.23858 39.7614 3 37 3C34.2386 3 32 5.23858 32 8C32 10.7614 34.2386 13 37 13Z"
              fill="#EB001B"/>
        <path d="M43 13C45.7614 13 48 10.7614 48 8C48 5.23858 45.7614 3 43 3C40.2386 3 38 5.23858 38 8C38 10.7614 40.2386 13 43 13Z"
              fill="#F79E1B"/>
        <path fill-rule="evenodd" clip-rule="evenodd"
              d="M40 3.99951C41.2144 4.91172 42 6.36406 42 7.99988C42 9.6357 41.2144 11.088 40 12.0002C38.7856 11.088 38 9.6357 38 7.99988C38 6.36406 38.7856 4.91172 40 3.99951Z"
              fill="#FF5F00"/>
    </g>
    <g clip-path="url(#clip2_358_2664)">
        <path d="M78 0H58C56.8954 0 56 0.89543 56 2V14C56 15.1046 56.8954 16 58 16H78C79.1046 16 80 15.1046 80 14V2C80 0.89543 79.1046 0 78 0Z"
              fill="#016FD0"/>
        <path fill-rule="evenodd" clip-rule="evenodd"
              d="M69.7656 13.3938V7.69238L79.9132 7.70149V9.27638L78.7403 10.5298L79.9132 11.7947V13.403H78.0405L77.0454 12.3048L76.0572 13.4071L69.7656 13.3938Z"
              fill="#FFFFFE"/>
        <path fill-rule="evenodd" clip-rule="evenodd"
              d="M70.4414 12.7687V8.31982H74.2137V9.34471H71.6628V10.0404H74.1529V11.0482H71.6628V11.7315H74.2137V12.7687H70.4414Z"
              fill="#016FD0"/>
        <path fill-rule="evenodd" clip-rule="evenodd"
              d="M74.1954 12.7686L76.2827 10.5416L74.1953 8.31982H75.811L77.0865 9.72986L78.3656 8.31982H79.9117V8.35483L77.8689 10.5416L79.9117 12.7055V12.7686H78.35L77.0519 11.3444L75.7671 12.7686H74.1954Z"
              fill="#016FD0"/>
        <path fill-rule="evenodd" clip-rule="evenodd"
              d="M70.2388 2.63184H72.6849L73.544 4.58269V2.63184H76.5639L77.0846 4.09341L77.6071 2.63184H79.9131V8.33323H67.7266L70.2388 2.63184Z"
              fill="#FFFFFE"/>
        <path fill-rule="evenodd" clip-rule="evenodd"
              d="M70.7006 3.25098L68.7266 7.69615H70.0805L70.4529 6.80598H72.4708L72.843 7.69615H74.2306L72.2648 3.25098H70.7006ZM70.8702 5.80841L71.4622 4.39334L72.0538 5.80841H70.8702Z"
              fill="#016FD0"/>
        <path fill-rule="evenodd" clip-rule="evenodd"
              d="M74.2109 7.69557V3.25049L76.1141 3.25703L77.0933 5.98976L78.079 3.25049H79.9106V7.69557L78.732 7.706V4.65265L77.6194 7.69557H76.5436L75.4079 4.64222V7.69557H74.2109Z"
              fill="#016FD0"/>
    </g>
    <g clip-path="url(#clip3_358_2664)">
        <path d="M105.997 15.7499L105.999 15.7499C106.954 15.7581 107.738 14.9773 107.75 14.0042L107.75 2.0063C107.746 1.53569 107.559 1.08617 107.23 0.756802C106.901 0.428269 106.459 0.246149 105.997 0.250071L86.0006 0.250062C85.5411 0.246149 85.0986 0.428269 84.7703 0.756802C84.4411 1.08617 84.2538 1.53569 84.25 2.00426L84.25 13.9937C84.2538 14.4643 84.4411 14.9138 84.7703 15.2432C85.0986 15.5717 85.5411 15.7538 86.0028 15.7499H105.997ZM105.996 16.2499C105.996 16.2499 105.995 16.2499 105.995 16.2499L105.997 16.2499H105.996Z"
              fill="white" stroke="black" stroke-opacity="0.2" strokeWidth="0.5"/>
        <path d="M96.6133 16.0002H105.998C106.525 16.0046 107.032 15.7995 107.407 15.4301C107.783 15.0607 107.996 14.5573 108.001 14.0305V11.6719C104.457 13.7062 100.614 15.167 96.6133 16.0002Z"
              fill="#F27712"/>
        <path d="M107.173 9.29643H106.321L105.361 8.03023H105.27V9.29643H104.574V6.15161H105.601C106.403 6.15161 106.867 6.48264 106.867 7.0785C106.867 7.56678 106.577 7.88126 106.056 7.98057L107.173 9.29643ZM106.147 7.10333C106.147 6.79712 105.915 6.63988 105.485 6.63988H105.27V7.59161H105.468C105.915 7.59161 106.147 7.42609 106.147 7.10333ZM102.141 6.15161H104.111V6.68126H102.836V7.38471H104.061V7.92264H102.836V8.77505H104.111V9.30471H102.141V6.15161ZM99.9067 9.37919L98.4005 6.14333H99.1619L100.114 8.26195L101.074 6.14333H101.818L100.296 9.37919H99.9233H99.9067ZM93.6088 9.37092C92.5495 9.37092 91.7219 8.65092 91.7219 7.71574C91.7219 6.8054 92.5661 6.06885 93.6254 6.06885C93.9233 6.06885 94.1716 6.12678 94.4778 6.25919V6.98747C94.2459 6.75965 93.9339 6.63187 93.6088 6.63161C92.9467 6.63161 92.4419 7.11161 92.4419 7.71574C92.4419 8.35299 92.9385 8.80816 93.6419 8.80816C93.9564 8.80816 94.1964 8.70885 94.4778 8.46057V9.18885C94.1633 9.32126 93.8985 9.37092 93.6088 9.37092ZM91.5067 8.33643C91.5067 8.94885 91.0019 9.37092 90.2736 9.37092C89.744 9.37092 89.3633 9.18885 89.0405 8.77505L89.4957 8.38609C89.653 8.66747 89.9178 8.80816 90.2488 8.80816C90.5633 8.80816 90.7867 8.61781 90.7867 8.36954C90.7867 8.22885 90.7205 8.12126 90.5798 8.0385C90.4256 7.96365 90.265 7.90271 90.0998 7.85643C89.4461 7.64954 89.2226 7.42609 89.2226 6.98747C89.2226 6.47436 89.7026 6.0854 90.3316 6.0854C90.7288 6.0854 91.0847 6.20954 91.3826 6.44126L91.0185 6.85505C90.8741 6.69683 90.6699 6.60671 90.4557 6.60678C90.1578 6.60678 89.9426 6.75574 89.9426 6.95436C89.9426 7.11988 90.0667 7.21092 90.4805 7.35161C91.275 7.59988 91.5067 7.83161 91.5067 8.34471V8.33643ZM88.0888 6.15161H88.784V9.30471H88.0888V6.15161ZM85.8543 9.30471H84.8281V6.15161H85.8543C86.9798 6.15161 87.7578 6.79712 87.7578 7.72402C87.7578 8.19574 87.5261 8.64264 87.1205 8.94057C86.773 9.18885 86.384 9.30471 85.8461 9.30471H85.8543ZM86.6654 6.93781C86.4336 6.75574 86.1688 6.68954 85.7136 6.68954H85.5233V8.77505H85.7136C86.1605 8.77505 86.4419 8.6923 86.6654 8.52678C86.9054 8.32816 87.0461 8.03023 87.0461 7.72402C87.0461 7.41781 86.9054 7.12816 86.6654 6.93781Z"
              fill="black"/>
        <path d="M96.413 6.06885C95.5026 6.06885 94.7578 6.79712 94.7578 7.69919C94.7578 8.65919 95.4695 9.37919 96.413 9.37919C97.3399 9.37919 98.0682 8.65092 98.0682 7.72402C98.0682 6.79712 97.3482 6.06885 96.413 6.06885Z"
              fill="#F27712"/>
    </g>
    <defs>
        <clipPath id="clip0_358_2664">
            <rect width="24" height="16" fill="white"/>
        </clipPath>
        <clipPath id="clip1_358_2664">
            <rect width="24" height="16" fill="white" transform="translate(28)"/>
        </clipPath>
        <clipPath id="clip2_358_2664">
            <rect width="24" height="16" fill="white" transform="translate(56)"/>
        </clipPath>
        <clipPath id="clip3_358_2664">
            <rect width="24" height="16" fill="white" transform="translate(84)"/>
        </clipPath>
    </defs>
</svg>
