<svg width="37" height="38" viewBox="0 0 37 38" fill="none" xmlns="http://www.w3.org/2000/svg">
    <path d="M32.9467 22.0833L33.4708 16.5796C33.8717 12.8179 32.7925 9.75 26.2096 9.75H10.7929C4.20999 9.75 3.13082 12.8179 3.54707 16.5796L4.70332 28.9129C5.02707 31.9346 6.13707 34.4167 12.3346 34.4167H24.6679C30.8654 34.4167 31.9754 31.9346 32.2992 28.9129"
          stroke="#4D4DF0" strokeWidth="2.57143" stroke-miterlimit="10" strokeLinecap="round"
          strokeLinejoin="round"/>
    <path d="M12.332 9.74992V8.51658C12.332 5.78783 12.332 3.58325 17.2654 3.58325H19.732C24.6654 3.58325 24.6654 5.78783 24.6654 8.51658V9.74992"
          stroke="#4D4DF0" strokeWidth="2.57143" stroke-miterlimit="10" strokeLinecap="round"
          strokeLinejoin="round"/>
    <path d="M21.5846 20.5417V22.0833C21.5846 22.0987 21.5846 22.0988 21.5846 22.1142C21.5846 23.7946 21.5692 25.1667 18.5013 25.1667C15.4488 25.1667 15.418 23.81 15.418 22.1296V20.5417C15.418 19 15.418 19 16.9596 19H20.043C21.5846 19 21.5846 19 21.5846 20.5417Z"
          stroke="#4D4DF0" strokeWidth="2.57143" stroke-miterlimit="10" strokeLinecap="round"
          strokeLinejoin="round"/>
    <path d="M33.3758 17.4583C29.8145 20.0483 25.7445 21.5899 21.582 22.1141" stroke="#4D4DF0" strokeWidth="2.57143"
          stroke-miterlimit="10" strokeLinecap="round" strokeLinejoin="round"/>
    <path d="M4.03906 17.8745C7.50781 20.2487 11.4236 21.6824 15.4166 22.1295" stroke="#4D4DF0" strokeWidth="2.57143"
          stroke-miterlimit="10" strokeLinecap="round" strokeLinejoin="round"/>
</svg>
