<svg width="11" height="8" viewBox="0 0 11 8" fill="none" xmlns="http://www.w3.org/2000/svg">
    <path d="M10.3994 1.27299L4.39941 7.27299C4.34715 7.32543 4.28506 7.36704 4.21669 7.39543C4.14831 7.42382 4.07501 7.43843 4.00098 7.43843C3.92694 7.43843 3.85364 7.42382 3.78527 7.39543C3.71689 7.36704 3.6548 7.32543 3.60254 7.27299L0.977538 4.64799C0.925215 4.59566 0.883709 4.53355 0.855392 4.46518C0.827075 4.39682 0.8125 4.32355 0.8125 4.24955C0.8125 4.17555 0.827075 4.10228 0.855392 4.03392C0.883709 3.96555 0.925215 3.90344 0.977538 3.85111C1.02986 3.79879 1.09198 3.75728 1.16034 3.72897C1.22871 3.70065 1.30198 3.68607 1.37598 3.68607C1.44997 3.68607 1.52324 3.70065 1.59161 3.72897C1.65997 3.75728 1.72209 3.79879 1.77441 3.85111L4.00144 6.07814L9.60348 0.47705C9.70915 0.371378 9.85247 0.312012 10.0019 0.312012C10.1514 0.312012 10.2947 0.371378 10.4004 0.47705C10.506 0.582722 10.5654 0.726044 10.5654 0.875488C10.5654 1.02493 10.506 1.16825 10.4004 1.27393L10.3994 1.27299Z"
          fill="white"/>
</svg>
