<svg width="20" height="22" viewBox="0 0 20 22" fill="none" xmlns="http://www.w3.org/2000/svg">
    <path d="M18.7827 7.1298C19.1135 7.1298 19.2789 6.96441 19.2789 6.63362V4.99621C19.2789 4.66542 19.1135 4.50003 18.7827 4.50003H17.9392V2.5153C17.9392 1.95296 17.7408 1.48158 17.3438 1.10117C16.9469 0.720766 16.4838 0.530563 15.9545 0.530563H2.70641C2.14407 0.530563 1.6727 0.720766 1.29229 1.10117C0.911883 1.48158 0.72168 1.95296 0.72168 2.5153V19.6832C0.72168 20.2456 0.911883 20.717 1.29229 21.0974C1.6727 21.4778 2.14407 21.668 2.70641 21.668H15.9545C16.4838 21.668 16.9469 21.4778 17.3438 21.0974C17.7408 20.717 17.9392 20.2456 17.9392 19.6832V17.6985H18.7827C19.1135 17.6985 19.2789 17.5331 19.2789 17.2023V15.5649C19.2789 15.2341 19.1135 15.0687 18.7827 15.0687H17.9392V12.439H18.7827C19.1135 12.439 19.2789 12.2736 19.2789 11.9428V10.2558C19.2789 9.92497 19.1135 9.75957 18.7827 9.75957H17.9392V7.1298H18.7827ZM9.35527 5.79011C10.083 5.79011 10.7032 6.05474 11.216 6.584C11.7287 7.11326 11.985 7.74176 11.985 8.46949C11.985 9.19723 11.7287 9.81746 11.216 10.3302C10.7032 10.8429 10.083 11.0993 9.35527 11.0993C8.62753 11.0993 7.99903 10.8429 7.46977 10.3302C6.94051 9.81746 6.67588 9.19723 6.67588 8.46949C6.67588 7.70868 6.93224 7.07191 7.44496 6.55919C7.95768 6.04647 8.59445 5.79011 9.35527 5.79011ZM13.9698 15.6145C13.9698 16.1438 13.6555 16.4084 13.027 16.4084H5.63389C5.36926 16.4084 5.14598 16.334 4.96405 16.1851C4.78211 16.0363 4.69115 15.8461 4.69115 15.6145V14.8206C4.69115 14.1591 4.96405 13.5967 5.50985 13.1336C6.05565 12.6705 6.70896 12.439 7.46977 12.439H7.71786C8.21405 12.6374 8.75985 12.7367 9.35527 12.7367C9.95069 12.7367 10.4965 12.6374 10.9927 12.439H11.1911C11.952 12.439 12.6053 12.6705 13.1511 13.1336C13.6969 13.5967 13.9698 14.1591 13.9698 14.8206V15.6145Z"
          fill="white"/>
</svg>
