<svg width="30" height="31" viewBox="0 0 30 31" fill="none" xmlns="http://www.w3.org/2000/svg">
    <g clip-path="url(#clip0_357_4340)">
        <path d="M27.425 5.91264C25.5 10.7126 20.675 17.2376 16.6375 20.4751L14.175 22.4501C13.8625 22.6751 13.55 22.8751 13.2 23.0126C13.2 22.7876 13.1875 22.5376 13.15 22.3001C13.0125 21.2501 12.5375 20.2751 11.7 19.4376C10.85 18.5876 9.8125 18.0876 8.75 17.9501C8.5 17.9376 8.25 17.9126 8 17.9376C8.1375 17.5501 8.35 17.1876 8.6125 16.8876L10.5625 14.4251C13.7875 10.3876 20.3375 5.53764 25.125 3.62514C25.8625 3.35014 26.575 3.55014 27.025 4.01264C27.5 4.47514 27.725 5.18764 27.425 5.91264Z"
              stroke="white" strokeWidth="2" strokeLinecap="round" strokeLinejoin="round"/>
        <path d="M13.0366 22.525C13.0366 23.9 12.5116 25.2125 11.5241 26.2125C10.7616 26.975 9.72412 27.5 8.48662 27.6625L5.41162 28C3.73662 28.1875 2.29912 26.7625 2.49912 25.0625L2.83662 21.9875C3.13662 19.25 5.42412 17.5 7.84912 17.45C8.09912 17.4375 8.36162 17.45 8.59912 17.4625C9.66162 17.6 10.6991 18.0875 11.5491 18.95C12.3866 19.7875 12.8616 20.7625 12.9991 21.8125C13.0116 22.05 13.0366 22.2875 13.0366 22.525Z"
              stroke="white" strokeWidth="2" strokeLinecap="round" strokeLinejoin="round"/>
        <path d="M17.7992 18.5873C17.7992 15.3248 15.1492 12.6748 11.8867 12.6748" stroke="white" strokeWidth="2"
              strokeLinecap="round" strokeLinejoin="round"/>
        <path d="M25.1484 16.4126L26.0734 17.3251C27.9359 19.1876 27.9359 21.0251 26.0734 22.8876L22.3734 26.5876C20.5359 28.4251 18.6734 28.4251 16.8359 26.5876"
              stroke="white" strokeWidth="2" strokeLinecap="round"/>
        <path d="M3.88594 13.6377C2.04844 11.7752 2.04844 9.9377 3.88594 8.0752L7.58594 4.3752C9.42344 2.5377 11.2859 2.5377 13.1234 4.3752L14.0484 5.3002"
              stroke="white" strokeWidth="2" strokeLinecap="round"/>
        <path d="M14.0625 5.3125L9.4375 9.9375" stroke="white" strokeWidth="2" strokeLinecap="round"/>
        <path d="M25.1492 16.4126L21.4492 20.1001" stroke="white" strokeWidth="2" strokeLinecap="round"/>
    </g>
    <defs>
        <clipPath id="clip0_357_4340">
            <rect width="30" height="30" fill="white" transform="translate(0 0.5)"/>
        </clipPath>
    </defs>
</svg>
