<svg width="328" height="355" viewBox="0 0 328 355" fill="none" xmlns="http://www.w3.org/2000/svg">
    <path style="mix-blend-mode:color-dodge"
          d="M222.951 364.532C226.244 362.221 227.041 357.678 224.73 354.385C222.419 351.092 217.875 350.297 214.581 352.609C211.287 354.92 210.491 359.463 212.802 362.756C215.113 366.049 219.657 366.844 222.951 364.532Z"
          fill="url(#paint0_radial_259_767)"/>
    <path style="mix-blend-mode:color-dodge"
          d="M202.025 256.644C201.443 251.686 196.951 248.14 191.992 248.723C187.033 249.306 183.485 253.798 184.067 258.756C184.649 263.714 189.141 267.261 194.1 266.677C199.059 266.094 202.607 261.602 202.025 256.644Z"
          fill="url(#paint1_radial_259_767)"/>
    <path style="mix-blend-mode:color-dodge"
          d="M64.8776 174.107C71.5632 166.848 71.0982 155.545 63.8389 148.862C56.5797 142.18 45.2752 142.648 38.5897 149.907C31.9041 157.167 32.3691 168.469 39.6283 175.152C46.8876 181.834 58.1921 181.367 64.8776 174.107Z"
          fill="url(#paint2_radial_259_767)"/>
    <path style="mix-blend-mode:color-dodge"
          d="M187.679 311.161C190.673 301.754 185.473 291.703 176.065 288.711C166.657 285.72 156.603 290.921 153.609 300.328C150.615 309.735 155.814 319.786 165.222 322.778C174.63 325.769 184.684 320.568 187.679 311.161Z"
          fill="url(#paint3_radial_259_767)"/>
    <path style="mix-blend-mode:color-dodge"
          d="M2.45816 183.477C5.17978 174.926 0.453736 165.79 -8.09776 163.071C-16.6493 160.352 -25.7879 165.079 -28.5096 173.63C-31.2312 182.181 -26.5051 191.317 -17.9536 194.036C-9.40214 196.755 -0.263468 192.027 2.45816 183.477Z"
          fill="url(#paint4_radial_259_767)"/>
    <path style="mix-blend-mode:color-dodge"
          d="M142.08 317.55C148.974 312.374 150.368 302.591 145.192 295.7C140.017 288.808 130.232 287.417 123.338 292.593C116.444 297.77 115.051 307.553 120.226 314.444C125.402 321.336 135.186 322.727 142.08 317.55Z"
          fill="url(#paint5_radial_259_767)"/>
    <path style="mix-blend-mode:color-dodge"
          d="M222.665 224.452C228.011 207.657 218.728 189.713 201.931 184.372C185.135 179.031 167.185 188.317 161.839 205.112C156.494 221.907 165.776 239.851 182.573 245.192C199.369 250.532 217.319 241.247 222.665 224.452Z"
          fill="url(#paint6_radial_259_767)"/>
    <path style="mix-blend-mode:color-dodge"
          d="M43.8495 239.855C48.7682 224.401 40.2269 207.89 24.7721 202.976C9.31733 198.062 -7.19866 206.606 -12.1174 222.059C-17.036 237.513 -8.49484 254.024 6.95997 258.938C22.4148 263.852 38.9308 255.308 43.8495 239.855Z"
          fill="url(#paint7_radial_259_767)"/>
    <path style="mix-blend-mode:color-dodge"
          d="M263.907 341.607C268.518 327.119 260.511 311.641 246.022 307.034C231.534 302.427 216.05 310.437 211.439 324.924C206.828 339.411 214.835 354.89 229.324 359.497C243.812 364.104 259.296 356.094 263.907 341.607Z"
          fill="url(#paint8_radial_259_767)"/>
    <path style="mix-blend-mode:color-dodge"
          d="M131.414 335.226C133.664 328.156 129.757 320.604 122.687 318.356C115.618 316.108 108.062 320.016 105.812 327.085C103.562 334.154 107.469 341.707 114.539 343.955C121.609 346.203 129.164 342.295 131.414 335.226Z"
          fill="url(#paint9_radial_259_767)"/>
    <path style="mix-blend-mode:color-dodge"
          d="M163.639 274.514C163.71 265.895 156.78 258.852 148.16 258.783C139.54 258.714 132.494 265.645 132.422 274.263C132.351 282.882 139.281 289.925 147.901 289.995C156.522 290.064 163.568 283.133 163.639 274.514Z"
          fill="url(#paint10_radial_259_767)"/>
    <path style="mix-blend-mode:color-dodge"
          d="M57.8837 178.225C58.7448 173.437 55.5611 168.859 50.7727 167.999C45.9843 167.139 41.4046 170.324 40.5435 175.111C39.6824 179.899 42.8661 184.477 47.6545 185.337C52.4428 186.197 57.0226 183.013 57.8837 178.225Z"
          fill="url(#paint11_radial_259_767)"/>
    <path style="mix-blend-mode:color-dodge"
          d="M32.1882 278.593C30.6646 267.748 20.6367 260.194 9.79015 261.72C-1.05639 263.246 -8.61419 273.274 -7.09065 284.119C-5.56711 294.963 4.46085 302.517 15.3074 300.991C26.1539 299.465 33.7117 289.437 32.1882 278.593Z"
          fill="url(#paint12_radial_259_767)"/>
    <defs>
        <radialGradient id="paint0_radial_259_767" cx="0" cy="0" r="1" gradientUnits="userSpaceOnUse"
                        gradientTransform="translate(218.758 358.576) rotate(-115.652) scale(7.28398 7.28615)">
            <stop offset="0.01" stop-color="white"/>
            <stop offset="0.02" stop-color="#F7F7F7"/>
            <stop offset="0.1" stop-color="#C4C4C4"/>
            <stop offset="0.18" stop-color="#959595"/>
            <stop offset="0.26" stop-color="#6D6D6D"/>
            <stop offset="0.35" stop-color="#4B4B4B"/>
            <stop offset="0.45" stop-color="#2F2F2F"/>
            <stop offset="0.55" stop-color="#1A1A1A"/>
            <stop offset="0.67" stop-color="#0B0B0B"/>
            <stop offset="0.8" stop-color="#020202"/>
            <stop offset="1"/>
        </radialGradient>
        <radialGradient id="paint1_radial_259_767" cx="0" cy="0" r="1" gradientUnits="userSpaceOnUse"
                        gradientTransform="translate(195.991 249.24) rotate(-115.642) scale(8.97028 8.97296)">
            <stop offset="0.01" stop-color="white"/>
            <stop offset="0.02" stop-color="#F7F7F7"/>
            <stop offset="0.1" stop-color="#C4C4C4"/>
            <stop offset="0.18" stop-color="#959595"/>
            <stop offset="0.26" stop-color="#6D6D6D"/>
            <stop offset="0.35" stop-color="#4B4B4B"/>
            <stop offset="0.45" stop-color="#2F2F2F"/>
            <stop offset="0.55" stop-color="#1A1A1A"/>
            <stop offset="0.67" stop-color="#0B0B0B"/>
            <stop offset="0.8" stop-color="#020202"/>
            <stop offset="1"/>
        </radialGradient>
        <radialGradient id="paint2_radial_259_767" cx="0" cy="0" r="1" gradientUnits="userSpaceOnUse"
                        gradientTransform="translate(59.6279 170.036) rotate(154.357) scale(18.1102 18.1048)">
            <stop offset="0.01" stop-color="white"/>
            <stop offset="0.02" stop-color="#F7F7F7"/>
            <stop offset="0.1" stop-color="#C4C4C4"/>
            <stop offset="0.18" stop-color="#959595"/>
            <stop offset="0.26" stop-color="#6D6D6D"/>
            <stop offset="0.35" stop-color="#4B4B4B"/>
            <stop offset="0.45" stop-color="#2F2F2F"/>
            <stop offset="0.55" stop-color="#1A1A1A"/>
            <stop offset="0.67" stop-color="#0B0B0B"/>
            <stop offset="0.8" stop-color="#020202"/>
            <stop offset="1"/>
        </radialGradient>
        <radialGradient id="paint3_radial_259_767" cx="0" cy="0" r="1" gradientUnits="userSpaceOnUse"
                        gradientTransform="translate(180.512 314.006) rotate(154.357) scale(18.1068 18.1014)">
            <stop offset="0.01" stop-color="white"/>
            <stop offset="0.02" stop-color="#F7F7F7"/>
            <stop offset="0.1" stop-color="#C4C4C4"/>
            <stop offset="0.18" stop-color="#959595"/>
            <stop offset="0.26" stop-color="#6D6D6D"/>
            <stop offset="0.35" stop-color="#4B4B4B"/>
            <stop offset="0.45" stop-color="#2F2F2F"/>
            <stop offset="0.55" stop-color="#1A1A1A"/>
            <stop offset="0.67" stop-color="#0B0B0B"/>
            <stop offset="0.8" stop-color="#020202"/>
            <stop offset="1"/>
        </radialGradient>
        <radialGradient id="paint4_radial_259_767" cx="0" cy="0" r="1" gradientUnits="userSpaceOnUse"
                        gradientTransform="translate(-25.0569 201.068) rotate(-115.652) scale(16.5232 16.5281)">
            <stop offset="0.01" stop-color="white"/>
            <stop offset="0.02" stop-color="#F7F7F7"/>
            <stop offset="0.1" stop-color="#C4C4C4"/>
            <stop offset="0.18" stop-color="#959595"/>
            <stop offset="0.26" stop-color="#6D6D6D"/>
            <stop offset="0.35" stop-color="#4B4B4B"/>
            <stop offset="0.45" stop-color="#2F2F2F"/>
            <stop offset="0.55" stop-color="#1A1A1A"/>
            <stop offset="0.67" stop-color="#0B0B0B"/>
            <stop offset="0.8" stop-color="#020202"/>
            <stop offset="1"/>
        </radialGradient>
        <radialGradient id="paint5_radial_259_767" cx="0" cy="0" r="1" gradientUnits="userSpaceOnUse"
                        gradientTransform="translate(123.843 328.492) rotate(-115.652) scale(15.8896 15.8943)">
            <stop offset="0.01" stop-color="white"/>
            <stop offset="0.02" stop-color="#F7F7F7"/>
            <stop offset="0.1" stop-color="#C4C4C4"/>
            <stop offset="0.18" stop-color="#959595"/>
            <stop offset="0.26" stop-color="#6D6D6D"/>
            <stop offset="0.35" stop-color="#4B4B4B"/>
            <stop offset="0.45" stop-color="#2F2F2F"/>
            <stop offset="0.55" stop-color="#1A1A1A"/>
            <stop offset="0.67" stop-color="#0B0B0B"/>
            <stop offset="0.8" stop-color="#020202"/>
            <stop offset="1"/>
        </radialGradient>
        <radialGradient id="paint6_radial_259_767" cx="0" cy="0" r="1" gradientUnits="userSpaceOnUse"
                        gradientTransform="translate(179.369 203.876) rotate(154.347) scale(31.4847 31.4753)">
            <stop offset="0.01" stop-color="white"/>
            <stop offset="0.02" stop-color="#F7F7F7"/>
            <stop offset="0.1" stop-color="#C4C4C4"/>
            <stop offset="0.18" stop-color="#959595"/>
            <stop offset="0.26" stop-color="#6D6D6D"/>
            <stop offset="0.35" stop-color="#4B4B4B"/>
            <stop offset="0.45" stop-color="#2F2F2F"/>
            <stop offset="0.55" stop-color="#1A1A1A"/>
            <stop offset="0.67" stop-color="#0B0B0B"/>
            <stop offset="0.8" stop-color="#020202"/>
            <stop offset="1"/>
        </radialGradient>
        <radialGradient id="paint7_radial_259_767" cx="0" cy="0" r="1" gradientUnits="userSpaceOnUse"
                        gradientTransform="translate(16.3207 231.453) rotate(154.347) scale(29.3879 29.3791)">
            <stop offset="0.01" stop-color="white"/>
            <stop offset="0.02" stop-color="#F7F7F7"/>
            <stop offset="0.1" stop-color="#C4C4C4"/>
            <stop offset="0.18" stop-color="#959595"/>
            <stop offset="0.26" stop-color="#6D6D6D"/>
            <stop offset="0.35" stop-color="#4B4B4B"/>
            <stop offset="0.45" stop-color="#2F2F2F"/>
            <stop offset="0.55" stop-color="#1A1A1A"/>
            <stop offset="0.67" stop-color="#0B0B0B"/>
            <stop offset="0.8" stop-color="#020202"/>
            <stop offset="1"/>
        </radialGradient>
        <radialGradient id="paint8_radial_259_767" cx="0" cy="0" r="1" gradientUnits="userSpaceOnUse"
                        gradientTransform="translate(230.854 326.008) rotate(154.347) scale(27.2898 27.2816)">
            <stop offset="0.01" stop-color="white"/>
            <stop offset="0.02" stop-color="#F7F7F7"/>
            <stop offset="0.1" stop-color="#C4C4C4"/>
            <stop offset="0.18" stop-color="#959595"/>
            <stop offset="0.26" stop-color="#6D6D6D"/>
            <stop offset="0.35" stop-color="#4B4B4B"/>
            <stop offset="0.45" stop-color="#2F2F2F"/>
            <stop offset="0.55" stop-color="#1A1A1A"/>
            <stop offset="0.67" stop-color="#0B0B0B"/>
            <stop offset="0.8" stop-color="#020202"/>
            <stop offset="1"/>
        </radialGradient>
        <radialGradient id="paint9_radial_259_767" cx="0" cy="0" r="1" gradientUnits="userSpaceOnUse"
                        gradientTransform="translate(116.713 334.249) rotate(64.3579) scale(13.3424 13.3464)">
            <stop offset="0.01" stop-color="white"/>
            <stop offset="0.02" stop-color="#F7F7F7"/>
            <stop offset="0.1" stop-color="#C4C4C4"/>
            <stop offset="0.18" stop-color="#959595"/>
            <stop offset="0.26" stop-color="#6D6D6D"/>
            <stop offset="0.35" stop-color="#4B4B4B"/>
            <stop offset="0.45" stop-color="#2F2F2F"/>
            <stop offset="0.55" stop-color="#1A1A1A"/>
            <stop offset="0.67" stop-color="#0B0B0B"/>
            <stop offset="0.8" stop-color="#020202"/>
            <stop offset="1"/>
        </radialGradient>
        <radialGradient id="paint10_radial_259_767" cx="0" cy="0" r="1" gradientUnits="userSpaceOnUse"
                        gradientTransform="translate(154.599 263.005) rotate(64.3579) scale(15.8896 15.8943)">
            <stop offset="0.01" stop-color="white"/>
            <stop offset="0.02" stop-color="#F7F7F7"/>
            <stop offset="0.1" stop-color="#C4C4C4"/>
            <stop offset="0.18" stop-color="#959595"/>
            <stop offset="0.26" stop-color="#6D6D6D"/>
            <stop offset="0.35" stop-color="#4B4B4B"/>
            <stop offset="0.45" stop-color="#2F2F2F"/>
            <stop offset="0.55" stop-color="#1A1A1A"/>
            <stop offset="0.67" stop-color="#0B0B0B"/>
            <stop offset="0.8" stop-color="#020202"/>
            <stop offset="1"/>
        </radialGradient>
        <radialGradient id="paint11_radial_259_767" cx="0" cy="0" r="1" gradientUnits="userSpaceOnUse"
                        gradientTransform="translate(49.1728 176.625) rotate(64.3579) scale(8.8071 8.80972)">
            <stop offset="0.01" stop-color="white"/>
            <stop offset="0.02" stop-color="#F7F7F7"/>
            <stop offset="0.1" stop-color="#C4C4C4"/>
            <stop offset="0.18" stop-color="#959595"/>
            <stop offset="0.26" stop-color="#6D6D6D"/>
            <stop offset="0.35" stop-color="#4B4B4B"/>
            <stop offset="0.45" stop-color="#2F2F2F"/>
            <stop offset="0.55" stop-color="#1A1A1A"/>
            <stop offset="0.67" stop-color="#0B0B0B"/>
            <stop offset="0.8" stop-color="#020202"/>
            <stop offset="1"/>
        </radialGradient>
        <radialGradient id="paint12_radial_259_767" cx="0" cy="0" r="1" gradientUnits="userSpaceOnUse"
                        gradientTransform="translate(10.0404 286.934) rotate(64.3479) scale(19.6971 19.703)">
            <stop offset="0.01" stop-color="white"/>
            <stop offset="0.02" stop-color="#F7F7F7"/>
            <stop offset="0.1" stop-color="#C4C4C4"/>
            <stop offset="0.18" stop-color="#959595"/>
            <stop offset="0.26" stop-color="#6D6D6D"/>
            <stop offset="0.35" stop-color="#4B4B4B"/>
            <stop offset="0.45" stop-color="#2F2F2F"/>
            <stop offset="0.55" stop-color="#1A1A1A"/>
            <stop offset="0.67" stop-color="#0B0B0B"/>
            <stop offset="0.8" stop-color="#020202"/>
            <stop offset="1"/>
        </radialGradient>
    </defs>
</svg>
