<svg width="20" height="20" viewBox="0 0 20 20" fill="none" xmlns="http://www.w3.org/2000/svg">
    <path d="M1.26322 5.51C2.09559 3.85353 3.37204 2.46106 4.95002 1.48806C6.528 0.515073 8.34538 -0.000126487 10.1992 2.32934e-08C12.8942 2.32934e-08 15.1582 0.991 16.8892 2.605L14.0222 5.473C12.9852 4.482 11.6672 3.977 10.1992 3.977C7.59422 3.977 5.38922 5.737 4.60422 8.1C4.40422 8.7 4.29022 9.34 4.29022 10C4.29022 10.66 4.40422 11.3 4.60422 11.9C5.39022 14.264 7.59422 16.023 10.1992 16.023C11.5442 16.023 12.6892 15.668 13.5852 15.068C14.1047 14.726 14.5494 14.2822 14.8924 13.7635C15.2355 13.2448 15.4698 12.6619 15.5812 12.05H10.1992V8.182H19.6172C19.7352 8.836 19.7992 9.518 19.7992 10.227C19.7992 13.273 18.7092 15.837 16.8172 17.577C15.1632 19.105 12.8992 20 10.1992 20C8.88585 20.0005 7.58526 19.7422 6.37176 19.2399C5.15827 18.7375 4.05567 18.0009 3.12698 17.0722C2.19829 16.1436 1.46171 15.0409 0.959354 13.8275C0.456993 12.614 0.198694 11.3134 0.19922 10C0.19922 8.386 0.58522 6.86 1.26322 5.51Z"
          fill="#C5C5C5"/>
</svg>
