<svg width="22" height="22" viewBox="0 0 22 22" fill="none" xmlns="http://www.w3.org/2000/svg">
    <path d="M10.9336 5.06836C7.97065 5.06836 5.51562 7.48106 5.51562 10.4863C5.51562 13.4916 7.92832 15.9043 10.9336 15.9043C13.9389 15.9043 16.3516 13.4493 16.3516 10.4863C16.3516 7.52339 13.8966 5.06836 10.9336 5.06836ZM10.9336 13.9572C9.02885 13.9572 7.46272 12.3911 7.46272 10.4863C7.46272 8.58159 9.02885 7.01545 10.9336 7.01545C12.8384 7.01545 14.4045 8.58159 14.4045 10.4863C14.4045 12.3911 12.8384 13.9572 10.9336 13.9572Z"
          fill="#C5C5C5"/>
    <path d="M16.5635 6.16889C17.2414 6.16889 17.791 5.61932 17.791 4.94138C17.791 4.26344 17.2414 3.71387 16.5635 3.71387C15.8855 3.71387 15.3359 4.26344 15.3359 4.94138C15.3359 5.61932 15.8855 6.16889 16.5635 6.16889Z"
          fill="#C5C5C5"/>
    <path d="M19.7391 1.7667C18.6386 0.623842 17.0724 0.03125 15.2946 0.03125H6.57507C2.89253 0.03125 0.4375 2.48628 0.4375 6.16882V14.8461C0.4375 16.6662 1.03009 18.2323 2.21528 19.3752C3.35813 20.4757 4.88195 21.026 6.61739 21.026H15.2523C17.0724 21.026 18.5962 20.4334 19.6968 19.3752C20.8396 18.2746 21.4322 16.7085 21.4322 14.8884V6.16882C21.4322 4.39104 20.8396 2.86723 19.7391 1.7667ZM19.5698 14.8884C19.5698 16.2006 19.1042 17.2588 18.3423 17.9783C17.5804 18.6979 16.5222 19.0789 15.2523 19.0789H6.61739C5.34755 19.0789 4.28935 18.6979 3.52745 17.9783C2.76554 17.2164 2.38459 16.1582 2.38459 14.8461V6.16882C2.38459 4.89897 2.76554 3.84077 3.52745 3.07887C4.24702 2.35929 5.34755 1.97834 6.61739 1.97834H15.337C16.6068 1.97834 17.665 2.35929 18.4269 3.1212C19.1465 3.8831 19.5698 4.9413 19.5698 6.16882V14.8884Z"
          fill="#C5C5C5"/>
</svg>
