<svg width="9" height="18" viewBox="0 0 9 18" fill="none" xmlns="http://www.w3.org/2000/svg">
    <path d="M8.08844 17.67C8.27844 17.67 8.46844 17.6 8.61844 17.45C8.90844 17.16 8.90844 16.68 8.61844 16.39L2.09844 9.87002C1.61844 9.39002 1.61844 8.61002 2.09844 8.13002L8.61844 1.61002C8.90844 1.32002 8.90844 0.84002 8.61844 0.55002C8.32844 0.26002 7.84844 0.26002 7.55844 0.55002L1.03844 7.07002C0.528438 7.58002 0.238438 8.27002 0.238438 9.00002C0.238438 9.73002 0.518437 10.42 1.03844 10.93L7.55844 17.45C7.70844 17.59 7.89844 17.67 8.08844 17.67Z"
          fill="#F2F2F2"/>
</svg>
