<svg width="20" height="20" viewBox="0 0 20 20" fill="none" xmlns="http://www.w3.org/2000/svg">
    <path d="M0.405906 6.71187H4.62517V19.409H0.405906V6.71187ZM2.54378 0.591309C1.0997 0.591309 0.15625 1.53936 0.15625 2.7837C0.15625 4.00245 1.07209 4.97806 2.48856 4.97806H2.51547C3.98716 4.97806 4.90366 4.0024 4.90366 2.7837C4.87605 1.53936 3.9872 0.591309 2.54378 0.591309ZM14.9846 6.41361C12.745 6.41361 11.7416 7.64548 11.1819 8.50939V6.71187H6.96137C7.01725 7.90301 6.96137 19.409 6.96137 19.409H11.1819V12.318C11.1819 11.9382 11.2095 11.5599 11.3206 11.2878C11.6261 10.5297 12.3205 9.74454 13.4853 9.74454C15.0136 9.74454 15.6239 10.9094 15.6239 12.6155V19.4089H19.8438V12.1282C19.8438 8.22823 17.7624 6.41361 14.9846 6.41361Z"
          fill="#C5C5C5"/>
</svg>
