<svg width="22" height="18" viewBox="0 0 22 18" fill="none" xmlns="http://www.w3.org/2000/svg">
    <path d="M13.1339 11.2328H8.86676C8.60212 11.2328 8.3623 11.3321 8.14729 11.5305C7.93228 11.729 7.82477 11.9771 7.82477 12.2748V16.4924C7.82477 16.7901 7.93228 17.0465 8.14729 17.2615C8.3623 17.4765 8.60212 17.584 8.86676 17.584H13.1339C13.3986 17.584 13.6384 17.4765 13.8534 17.2615C14.0684 17.0465 14.1759 16.7901 14.1759 16.4924V12.2748C14.1759 11.9771 14.0684 11.729 13.8534 11.5305C13.6384 11.3321 13.3986 11.2328 13.1339 11.2328ZM6.78279 1.70612C6.78279 1.40841 6.67528 1.15205 6.46027 0.937037C6.24525 0.722023 5.98889 0.614517 5.69118 0.614517H1.47363C1.17592 0.614517 0.927824 0.722023 0.729351 0.937037C0.530877 1.15205 0.431641 1.40841 0.431641 1.70612V5.92368C0.431641 6.22139 0.530877 6.46948 0.729351 6.66795C0.927824 6.86643 1.17592 6.96566 1.47363 6.96566H4.6492L7.0805 11.2328C7.47744 10.5051 8.07286 10.1412 8.86676 10.1412H8.91637L6.78279 6.41986V4.88169H14.1759V2.74811H6.78279V1.70612ZM20.5271 0.614517H16.3095C16.0118 0.614517 15.7554 0.722023 15.5404 0.937037C15.3254 1.15205 15.2179 1.40841 15.2179 1.70612V5.92368C15.2179 6.22139 15.3254 6.46948 15.5404 6.66795C15.7554 6.86643 16.0118 6.96566 16.3095 6.96566H20.5271C20.8248 6.96566 21.0729 6.86643 21.2713 6.66795C21.4698 6.46948 21.569 6.22139 21.569 5.92368V1.70612C21.569 1.40841 21.4698 1.15205 21.2713 0.937037C21.0729 0.722023 20.8248 0.614517 20.5271 0.614517Z"
          fill="white"/>
</svg>
