<svg width="22" height="22" viewBox="0 0 22 22" fill="none" xmlns="http://www.w3.org/2000/svg">
    <path d="M21.321 1.32446C21.2548 1.02675 21.0729 0.844812 20.7752 0.778654C19.9151 0.61326 18.7904 0.530563 17.4011 0.530563C13.7955 0.530563 10.8846 2.28374 8.66828 5.79011H4.35149C3.52452 5.79011 2.9291 6.15397 2.56523 6.88171L0.530877 11C0.46472 11.0993 0.431641 11.2481 0.431641 11.4466C0.431641 11.7112 0.530877 11.9428 0.729351 12.1413C0.861666 12.3397 1.09322 12.439 1.42401 12.439H5.69118L4.74843 13.3321C4.18609 13.9606 4.18609 14.5891 4.74843 15.2176L6.88202 17.3512C7.11357 17.5827 7.41955 17.6985 7.79996 17.6985C8.18037 17.6985 8.50289 17.5827 8.76752 17.3512L9.66065 16.4084V20.6756C9.66065 20.9733 9.75988 21.2049 9.95836 21.3703C10.1568 21.5687 10.3884 21.668 10.653 21.668C10.8515 21.668 11.0003 21.6349 11.0996 21.5687L15.2179 19.5344C15.9456 19.1705 16.3095 18.5751 16.3095 17.7481V13.4313C19.8159 11.215 21.569 8.3041 21.569 4.6985C21.569 3.30919 21.4863 2.18451 21.321 1.32446ZM16.3095 7.47713C15.9787 7.47713 15.6645 7.37789 15.3668 7.17942C15.036 6.91479 14.8375 6.6667 14.7713 6.43514C14.639 6.17051 14.6059 5.85626 14.6721 5.4924C14.7383 5.12853 14.8871 4.84736 15.1187 4.64888C15.3502 4.41733 15.6314 4.26848 15.9622 4.20232C16.293 4.10308 16.6072 4.13616 16.9049 4.30156C17.2688 4.40079 17.5169 4.59927 17.6492 4.89698C17.8477 5.16161 17.9469 5.45932 17.9469 5.79011C17.9469 6.28629 17.7815 6.68324 17.4507 6.98095C17.1199 7.31173 16.7395 7.47713 16.3095 7.47713Z"
          fill="white"/>
</svg>
