<svg width="18" height="18" viewBox="0 0 18 18" fill="none" xmlns="http://www.w3.org/2000/svg">
    <path d="M15.8086 15.8331L14.3715 14.4409M8.26377 15.137C9.16021 15.137 10.0479 14.966 10.8761 14.6337C11.7043 14.3013 12.4568 13.8142 13.0907 13.2001C13.7246 12.5861 14.2274 11.8571 14.5704 11.0548C14.9135 10.2524 15.09 9.39251 15.09 8.52409C15.09 7.65566 14.9135 6.79574 14.5704 5.99342C14.2274 5.1911 13.7246 4.46209 13.0907 3.84802C12.4568 3.23395 11.7043 2.74685 10.8761 2.41451C10.0479 2.08218 9.16021 1.91113 8.26377 1.91113C6.45333 1.91113 4.71704 2.60785 3.43687 3.84802C2.15669 5.08819 1.4375 6.77022 1.4375 8.52409C1.4375 10.2779 2.15669 11.96 3.43687 13.2001C4.71704 14.4403 6.45333 15.137 8.26377 15.137V15.137Z"
          stroke="white" stroke-opacity="0.96" strokeLinecap="round" strokeLinejoin="round"/>
</svg>
