<svg width="14" height="14" viewBox="0 0 14 14" fill="none" xmlns="http://www.w3.org/2000/svg">
    <path d="M7.03966 12.8216C6.21716 12.8216 5.38883 12.5066 4.76466 11.8825L2.12216 9.23998C1.4805 8.59831 1.14216 7.71165 1.183 6.80748L1.323 3.89081C1.38716 2.49665 2.48966 1.39415 3.88966 1.32415L6.80633 1.18415C7.7105 1.14915 8.59716 1.48165 9.23883 2.12331L11.8813 4.76581C13.1355 6.01998 13.1355 8.06748 11.8813 9.32165L9.3205 11.8825C8.6905 12.5066 7.868 12.8216 7.03966 12.8216ZM2.7405 8.61581L5.383 11.2583C5.82633 11.7016 6.4155 11.9466 7.03966 11.9466C7.66383 11.9466 8.253 11.7016 8.69633 11.2583L11.2572 8.69748C11.7005 8.25415 11.9455 7.66498 11.9455 7.04081C11.9455 6.41665 11.7005 5.82748 11.2572 5.38415L8.61466 2.74165C8.148 2.27498 7.5005 2.02415 6.84716 2.05915L3.9305 2.19915C2.97966 2.23998 2.23883 2.98081 2.19216 3.92581L2.05216 6.84248C2.023 7.50165 2.27383 8.14915 2.7405 8.61581Z"
          fill="white"/>
    <path d="M5.54036 7.43766C4.4962 7.43766 3.64453 6.586 3.64453 5.54183C3.64453 4.49766 4.4962 3.646 5.54036 3.646C6.58453 3.646 7.4362 4.49766 7.4362 5.54183C7.4362 6.586 6.58453 7.43766 5.54036 7.43766ZM5.54036 4.521C4.98036 4.521 4.51953 4.98183 4.51953 5.54183C4.51953 6.10183 4.98036 6.56266 5.54036 6.56266C6.10036 6.56266 6.5612 6.10183 6.5612 5.54183C6.5612 4.98183 6.10036 4.521 5.54036 4.521Z"
          fill="white"/>
</svg>
