<svg width="118" height="18" viewBox="0 0 118 18" fill="none" xmlns="http://www.w3.org/2000/svg">
    <path d="M3.81244 9.54074C3.81244 10.7171 4.75744 11.2574 8.35228 11.2574C11.3345 11.2574 12.232 10.9227 12.232 10.0524C12.232 9.1295 11.6005 8.97169 8.02461 8.79954C3.21409 8.57958 1.30982 7.81447 1.30982 5.3231C1.30982 2.83173 3.78394 2.1001 7.91539 2.1001C12.0468 2.1001 14.6017 3.14734 14.6017 5.89693H11.7619C11.7619 4.67276 10.5462 4.3715 7.59722 4.3715C4.80493 4.3715 4.14485 4.63929 4.14485 5.46656C4.14485 6.29383 4.80493 6.48032 8.02461 6.6716C12.3745 6.91069 15.0718 7.14979 15.0718 9.95676C15.0718 12.9263 12.2795 13.5288 8.19557 13.5288C3.66997 13.5288 0.972656 12.7494 0.972656 9.54552H3.81244V9.54074Z"
          fill="white"/>
    <path d="M25.8862 10.0185H28.5645C27.9519 12.3999 25.6488 13.5284 22.2107 13.5284C18.7725 13.5284 15.9375 12.1321 15.9375 8.70344C15.9375 5.27482 18.6016 3.85938 22.3721 3.85938C25.9052 3.85938 28.726 5.08354 28.726 9.33465H18.6965C18.9957 10.8266 20.4156 11.3191 22.2107 11.3191C24.0057 11.3191 25.2071 10.9701 25.8862 10.0185ZM18.7915 7.60361H25.8387C25.3829 6.2838 24.0579 5.92038 22.3531 5.92038C20.5106 5.92038 19.2142 6.2838 18.7915 7.60361Z"
          fill="white"/>
    <path d="M42.6818 8.19217L42.6486 13.3662H39.937V9.22028C39.937 7.23579 39.2769 6.20289 37.0497 6.20289C35.2357 6.20289 33.2792 7.14015 32.4434 8.12522V13.3662H29.7461V4.01278H32.4434V5.64819C33.7683 4.60096 35.5966 3.85498 37.8523 3.85498C40.3264 3.85498 42.6438 4.74442 42.6771 8.18739L42.6818 8.19217Z"
          fill="white"/>
    <path d="M56.4778 0.665039V13.3658H53.7804V11.9073C52.7737 12.9689 51.1496 13.5284 49.1456 13.5284C46.1634 13.5284 43.6133 12.2755 43.6133 8.70342C43.6133 5.13134 46.1681 3.85935 49.1456 3.85935C51.1496 3.85935 52.7737 4.41405 53.7804 5.48042V0.669822H56.4778V0.665039ZM53.7852 8.69864C53.7852 6.84326 52.4603 6.12597 50.0479 6.12597C47.6355 6.12597 46.3248 6.83848 46.3248 8.69864C46.3248 10.5588 47.6355 11.257 50.0479 11.257C52.4603 11.257 53.7852 10.5445 53.7852 8.69864Z"
          fill="white"/>
    <path d="M75.3627 13.3666H72.523V5.74421L67.9356 13.3666H65.8841L61.2968 5.74421V13.3666H58.457V2.25342H62.2893L66.9099 10.0957L71.5305 2.25342H75.3627V13.3666Z"
          fill="white"/>
    <path d="M89.7174 4.01709L83.4443 17.3395H80.462L82.3378 13.3705H80.9512L76.1406 4.01709H79.1371L83.1118 11.7351L86.7399 4.01709H89.7222H89.7174Z"
          fill="white"/>
    <path d="M97.6919 2.09521C102.089 2.09521 104.297 3.77844 104.582 6.9871H101.695C101.429 5.19389 100.057 4.49573 97.6919 4.49573C94.8046 4.49573 93.5937 5.52862 93.5937 7.80002C93.5937 10.0714 94.8236 11.133 97.6919 11.133C100.043 11.133 101.429 10.4205 101.695 8.60817H104.582C104.297 11.8312 102.089 13.5287 97.6919 13.5287C92.8339 13.5287 90.7539 11.4964 90.7539 7.79524C90.7539 4.09405 92.8339 2.09521 97.6919 2.09521Z"
          fill="white"/>
    <path d="M117.997 4.01709L113.281 13.3705H109.435L104.738 4.01709H107.735L111.377 11.4482L115.005 4.01709H118.002H117.997Z"
          fill="white"/>
</svg>
