<svg width="50" height="50" viewBox="0 0 50 50" fill="none" xmlns="http://www.w3.org/2000/svg">
    <path d="M33.2831 16.1924H28.976L24.8588 23.3796L20.7416 16.1972H16.4297L24.8588 30.892L33.2831 16.1924Z"
          fill="white"/>
    <path d="M0 6.64248L3.86552 13.385C4.75354 10.9414 6.0737 8.64609 7.74528 6.64248H0ZM40.113 6.64248H34.3908C34.3908 6.64248 34.3908 6.64248 34.386 6.64248H18.2211C17.504 6.97721 16.806 7.36933 16.1411 7.81404C14.3319 9.01908 12.7695 10.6115 11.5871 12.4429H39.7474L37.5962 16.1967L27.0159 34.6501L25.6672 37.0028L24.8599 38.4087L24.0526 37.0028L10.7798 13.844C9.79201 15.7855 9.20316 17.9373 9.07494 20.1179V20.1274C9.05595 20.4335 9.04645 20.7491 9.04645 21.0934C9.04645 21.5764 9.07019 22.0545 9.11293 22.5327L15.747 34.1002L17.1811 36.6059L17.7225 37.5527L19.8784 41.3065L20.0541 41.6173V41.6221L20.9897 43.2527L24.8599 50L28.7302 43.2527L29.661 41.6269L29.8414 41.3017L32.534 36.6059L33.9681 34.1002L40.6022 22.5327L42.0363 20.0366L42.2405 19.6779L44.7289 15.336L44.9093 15.0156L49.7151 6.6377H40.1083L40.113 6.64248Z"
          fill="#9999FF"/>
    <path d="M35.3279 2.83089L33.9507 5.2314L33.4711 6.06823C32.944 5.75741 32.3979 5.48006 31.8422 5.2314C29.6768 4.26546 27.3119 3.75379 24.8568 3.75379C22.4016 3.75379 20.0367 4.2798 17.914 5.22662C17.8713 5.24575 17.8238 5.26488 17.7811 5.284L17.6291 5.35573C17.4344 5.44659 17.2397 5.54223 17.045 5.64265C16.95 5.69046 16.8503 5.74307 16.7553 5.79567C16.6604 5.84349 16.5654 5.89609 16.4704 5.95347C16.3754 6.00607 16.2852 6.06345 16.1902 6.11605C16.0953 6.16866 16.005 6.22604 15.91 6.28342C15.8198 6.3408 15.7248 6.39819 15.6346 6.45557C15.5444 6.51295 15.4542 6.57512 15.3639 6.6325C15.3354 6.65163 15.307 6.67075 15.2737 6.69466C15.1787 6.75683 15.0838 6.82378 14.9888 6.89072C14.8796 6.96723 14.7751 7.04374 14.6659 7.12025C14.5851 7.17764 14.5092 7.2398 14.4284 7.29718C14.3952 7.32588 14.3619 7.34979 14.3287 7.37369C14.248 7.43586 14.1672 7.49802 14.0913 7.56497C13.8823 7.73712 13.6734 7.90927 13.4739 8.09098C13.3742 8.17705 13.2745 8.26791 13.1795 8.35877C13.0845 8.44484 12.9848 8.54048 12.8898 8.63612C12.7948 8.72697 12.6999 8.82261 12.6049 8.91825C11.9496 9.58293 11.3512 10.305 10.8098 11.0701C10.1973 11.9404 9.66539 12.8633 9.219 13.834C9.18101 13.9201 9.14302 14.0062 9.10503 14.0923C9.09078 14.1305 9.07179 14.1688 9.05754 14.207C8.48294 15.5364 8.07454 16.9471 7.85135 18.4199C7.85135 18.4247 7.85135 18.4295 7.85135 18.4342C7.8371 18.5394 7.81811 18.6399 7.80861 18.7451C7.79436 18.8503 7.78012 18.9507 7.77062 19.0559C7.75637 19.1802 7.74213 19.3093 7.73263 19.4337C7.73263 19.4528 7.72788 19.4767 7.72788 19.4958C7.71838 19.6058 7.70888 19.7158 7.69939 19.8306C7.69464 19.8927 7.68989 19.9549 7.68514 20.017C7.68514 20.0314 7.68514 20.0457 7.68514 20.0601C7.68039 20.1318 7.67564 20.2035 7.67564 20.2801C7.67564 20.2896 7.67564 20.2944 7.67564 20.304C7.67089 20.4665 7.66614 20.6291 7.6614 20.7965C7.6614 20.8874 7.6614 20.9782 7.6614 21.0738C7.6614 21.2986 7.66614 21.5233 7.67564 21.7481C7.67564 21.815 7.68039 21.8772 7.68514 21.9394C7.68989 22.0446 7.69464 22.145 7.70413 22.2502C7.70888 22.3411 7.71838 22.4319 7.72788 22.5228C7.73738 22.6662 7.75162 22.8097 7.76587 22.9531C8.29773 27.9024 10.9096 32.2396 14.6991 35.0466L15.986 37.2893L16.0763 37.4519L16.5274 38.2409L18.1372 41.0479C9.88383 38.217 3.93359 30.3316 3.93359 21.0786C3.93359 18.965 4.24227 16.9279 4.82162 15.0008C4.93084 14.647 5.04481 14.2931 5.16828 13.9488L5.20152 13.858C5.25376 13.7193 5.30125 13.5806 5.35823 13.4419C5.35823 13.4324 5.36773 13.4228 5.36773 13.4132C5.47695 13.1359 5.58617 12.8681 5.70489 12.5955C5.70964 12.586 5.71439 12.5764 5.71914 12.5668C5.77613 12.4329 5.83786 12.2991 5.89959 12.1652C5.90434 12.1556 5.90909 12.1413 5.91384 12.1317C5.97557 12.0026 6.03731 11.8782 6.09429 11.7539C6.21301 11.5148 6.33648 11.2757 6.45995 11.0414C6.55018 10.874 6.64041 10.7067 6.74013 10.5441C6.81611 10.4102 6.89209 10.2811 6.97282 10.152C7.05355 10.0229 7.13428 9.89376 7.21501 9.76465C7.21976 9.75508 7.22926 9.74552 7.234 9.73596C7.30998 9.61641 7.39071 9.49686 7.4667 9.38209C7.55217 9.25776 7.63765 9.12865 7.72313 9.00432C7.80861 8.87999 7.89884 8.75566 7.98906 8.63134C8.16952 8.38268 8.35472 8.1388 8.54467 7.8997C8.63965 7.78016 8.73937 7.66061 8.83435 7.54106L8.90083 7.45977C9.13827 7.17764 9.38046 6.90029 9.63214 6.6325C13.4407 2.55354 18.859 0 24.8615 0C28.5561 0 32.1699 0.999418 35.3326 2.83089H35.3279Z"
          fill="white"/>
    <path d="M45.8099 21.0932C45.8099 26.9701 43.3453 32.6223 39.0572 36.6057C36.8822 38.6236 34.3464 40.1299 31.6016 41.0672L33.7528 37.3134L35.0349 35.0754C35.5526 34.6929 36.0464 34.2816 36.5261 33.8417C39.5938 30.9965 41.5218 27.1136 41.9729 22.9724C42.0442 22.3508 42.0774 21.7196 42.0774 21.0884H45.8099V21.0932Z"
          fill="white"/>
</svg>
